<svg xmlns="http://www.w3.org/2000/svg" viewBox="0 0 2055 1058" width="2055" height="1058">
	<style>
		tspan { white-space:pre }
		.shp0 { fill: #253865 } 
		.shp1 { opacity: 0.102;fill: none;stroke: #0eb582;stroke-width: 3 } 
	</style>
	<g id="about area">
		<g id="bg shape">
			<path id="shape" class="shp0" d="M134 81L2054 81L2054 881L134 881L134 81Z" />
			<path id="Shape 28" class="shp1" d="M56 798C56 798 373 734 250 512C250 512 88 286 358 295C358 295 531 286 426 140C426 140 353 2 580 28C580 28 856 66 864 235C864 235 815 562 992 619C1169 676 1178 483 1347 480C1516 477 1670 615 1559 836C1448 1057 964.74 1011.83 1093 789C1428 207 897 669 806 694C596 719 653 858 517 593C443.14 449.07 303 529 336 671C369 813 612 921 654 754C696 587 752 478 629 410C506 342 280 365 181 452C82 539 1 672 16 759C31 846 30 791 42 798C54 805 56 798 56 798Z" />
		</g>
	</g>
</svg>