<svg xmlns="http://www.w3.org/2000/svg" viewBox="0 0 1770 1637" width="1770" height="1637">
	<style>
		tspan { white-space:pre }
		.shp0 { fill: #fd426f } 
		.shp1 { fill: #ffc600 } 
		.shp2 { fill: #0eb582 } 
		.shp3 { fill: #590eb5 } 
		.shp4 { fill: #f7b23f } 
		.shp5 { fill: #0e39b5 } 
	</style>
	<g id="slider area">
		<g id="subject area">
			<g id="bg shape">
				<g id="shape">
					<path id="shape" class="shp0" d="M12.5 916C15.54 916 18 918.46 18 921.5C18 924.54 15.54 927 12.5 927C9.46 927 7 924.54 7 921.5C7 918.46 9.46 916 12.5 916Z" />
					<path id="shape" class="shp0" d="M1429.5 2C1432.54 2 1435 4.46 1435 7.5C1435 10.54 1432.54 13 1429.5 13C1426.46 13 1424 10.54 1424 7.5C1424 4.46 1426.46 2 1429.5 2Z" />
					<path id="shape" class="shp1" d="M1175.5 617C1178.54 617 1181 619.46 1181 622.5C1181 625.54 1178.54 628 1175.5 628C1172.46 628 1170 625.54 1170 622.5C1170 619.46 1172.46 617 1175.5 617Z" />
					<path id="shape" class="shp2" d="M403 547C407.97 547 412 551.03 412 556C412 560.97 407.97 565 403 565C398.03 565 394 560.97 394 556C394 551.03 398.03 547 403 547Z" />
					<path id="shape" class="shp3" d="M7 198C9.76 198 12 200.24 12 203C12 205.76 9.76 208 7 208C4.24 208 2 205.76 2 203C2 200.24 4.24 198 7 198Z" />
					<path id="shape" class="shp2" d="M1609 868C1613.97 868 1618 872.03 1618 877C1618 881.97 1613.97 886 1609 886C1604.03 886 1600 881.97 1600 877C1600 872.03 1604.03 868 1609 868Z" />
					<path id="shape" class="shp4" d="M130 1618C134.97 1618 139 1622.03 139 1627C139 1631.97 134.97 1636 130 1636C125.03 1636 121 1631.97 121 1627C121 1622.03 125.03 1618 130 1618Z" />
					<path id="shape" class="shp5" d="M1764 1520C1766.76 1520 1769 1522.24 1769 1525C1769 1527.76 1766.76 1530 1764 1530C1761.24 1530 1759 1527.76 1759 1525C1759 1522.24 1761.24 1520 1764 1520Z" />
					<path id="shape" class="shp0" d="M1514.5 1166C1515.88 1166 1517 1167.12 1517 1168.5C1517 1169.88 1515.88 1171 1514.5 1171C1513.12 1171 1512 1169.88 1512 1168.5C1512 1167.12 1513.12 1166 1514.5 1166Z" />
				</g>
			</g>
		</g>
	</g>
</svg>